<svg width="1000" height="162" viewBox="0 0 1000 162" fill="none" xmlns="http://www.w3.org/2000/svg">
<path d="M16.8703 85.6441V139.074H33.7406C59.5816 139.074 72.5021 130.038 72.5021 111.966C72.5021 94.4181 58.8452 85.6441 31.5314 85.6441H16.8703ZM0 154.395V6.28581H24.9038C40.0335 6.28581 52.2176 9.42872 61.4561 15.7145C70.8285 22.0003 75.5147 32.2148 75.5147 46.3578C75.5147 59.1914 70.5607 68.8165 60.6528 75.2333C69.4896 77.3285 76.4519 81.9119 81.5398 88.9835C86.7616 96.055 89.3724 104.109 89.3724 113.145C89.3724 127.157 84.3515 137.568 74.3097 144.377C64.2678 151.056 51.2134 154.395 35.1465 154.395H0ZM16.8703 21.6075V71.5011H23.2971C28.9205 71.5011 33.5398 71.2392 37.1548 70.7153C40.7699 70.1915 44.385 69.1439 48 67.5724C51.6151 66.001 54.2929 63.4474 56.0335 59.9116C57.7741 56.3758 58.6444 51.8579 58.6444 46.3578C58.6444 36.1434 55.7657 29.4647 50.0084 26.3218C44.385 23.1789 35.5481 21.6075 23.4979 21.6075H16.8703Z" fill="black"/>
<path d="M161.545 6.28581V154.395H144.675V6.28581H161.545Z" fill="black"/>
<path d="M239.321 6.28581V139.074H281.095V154.395H222.45V6.28581H239.321Z" fill="black"/>
<path d="M344.76 6.28581V139.074H386.534V154.395H327.89V6.28581H344.76Z" fill="black"/>
<path d="M450.601 6.28581V154.395H433.731V6.28581H450.601Z" fill="black"/>
<path d="M526.971 26.3218C542.502 11.2621 561.113 3.7322 582.804 3.7322C604.494 3.7322 623.038 11.2621 638.435 26.3218C653.967 41.2506 661.733 59.3223 661.733 80.5369C661.733 101.752 653.967 119.823 638.435 134.752C623.038 149.55 604.494 156.949 582.804 156.949C561.113 156.949 542.502 149.55 526.971 134.752C511.573 119.823 503.875 101.752 503.875 80.5369C503.875 59.3223 511.573 41.2506 526.971 26.3218ZM626.787 37.1256C614.737 25.0778 600.076 19.0539 582.804 19.0539C565.532 19.0539 550.871 25.0778 538.82 37.1256C526.77 49.0424 520.745 63.4474 520.745 80.3405C520.745 97.1026 526.77 111.508 538.82 123.555C551.004 135.603 565.666 141.627 582.804 141.627C599.942 141.627 614.536 135.603 626.586 123.555C638.77 111.508 644.862 97.1026 644.862 80.3405C644.862 63.4474 638.837 49.0424 626.787 37.1256Z" fill="black"/>
<path d="M715.819 154.395V0L833.911 121.002V6.28581H850.781V161.074L732.689 40.2685V154.395H715.819Z" fill="black"/>
<path d="M994.577 26.7147L981.121 35.1612C974.828 24.423 966.125 19.0539 955.013 19.0539C948.184 19.0539 942.293 21.2146 937.339 25.5361C932.385 29.8576 929.908 35.3577 929.908 42.0363C929.908 45.0483 930.577 47.7983 931.916 50.2865C933.255 52.7746 935.331 55.0008 938.142 56.9651C940.954 58.7985 943.297 60.239 945.172 61.2866C947.18 62.3343 949.992 63.6438 953.607 65.2153L963.648 69.5368C969.406 72.0249 974.159 74.382 977.908 76.6083C981.657 78.7035 985.339 81.3881 988.954 84.662C992.703 87.8049 995.448 91.6026 997.188 96.055C999.063 100.507 1000 105.549 1000 111.18C1000 124.014 995.381 134.883 986.142 143.788C976.904 152.562 965.657 156.949 952.402 156.949C940.351 156.949 930.042 153.478 921.473 146.538C913.038 139.466 907.615 130.169 905.205 118.645L921.674 114.127C922.745 121.853 926.092 128.401 931.715 133.77C937.339 139.008 944.1 141.627 952 141.627C960.301 141.627 967.531 138.877 973.69 133.377C979.983 127.746 983.13 120.871 983.13 112.752C983.13 109.478 982.527 106.466 981.322 103.716C980.251 100.835 978.979 98.5431 977.506 96.8407C976.167 95.1383 973.958 93.305 970.879 91.3406C967.799 89.3763 965.389 88.0013 963.648 87.2156C961.908 86.2989 959.096 84.9894 955.213 83.287L945.975 79.3583C935.264 74.644 927.096 69.5368 921.473 64.0367C915.849 58.5366 913.038 51.0067 913.038 41.447C913.038 30.3159 917.188 21.2801 925.49 14.3395C933.791 7.26796 943.766 3.7322 955.414 3.7322C963.849 3.7322 971.481 5.76199 978.31 9.82157C985.138 13.7502 990.561 19.3812 994.577 26.7147Z" fill="black"/>
</svg>
